<svg version="1.1" xmlns="http://www.w3.org/2000/svg" xmlns:xlink="http://www.w3.org/1999/xlink" width="2900" height="2450"><defs/><g fill="none" fill-rule="nonzero" stroke="none" stroke-width="none" stroke-linecap="butt" stroke-linejoin="miter" stroke-miterlimit="10" stroke-dasharray="" stroke-dashoffset="0" font-family="sans-serif" font-weight="normal" font-size="11px" text-anchor="start" style="mix-blend-mode: normal"><g><g><rect x="387" y="139" width="163" height="176" fill="#ffffff" stroke="#bbbbbb" stroke-width="1.5"/><rect x="565" y="182.8312" width="163" height="132.1688" fill="#ffffff" stroke="#bbbbbb" stroke-width="1.5"/><rect x="743" y="246.6961" width="163" height="68.3039" fill="#ffffff" stroke="#bbbbbb" stroke-width="1.5"/></g></g><g class="domain" transform="translate(365,139)" fill="none" font-size="10" font-family="sans-serif" text-anchor="end" style="pointer-events: none;"><path class="domain" stroke="#444" d="M-6,0.5H0.5V176.5H-6"/><g class="tick" opacity="1" transform="translate(0,8.282352941176583)"><line stroke="#444" x2="-6" y1="0.5" y2="0.5"/><text fill="#444" x="-9" y="0.5" dy="0.32em">0.6</text></g><g class="tick" opacity="1" transform="translate(0,36.23529411764716)"><line stroke="#444" x2="-6" y1="0.5" y2="0.5"/><text fill="#444" x="-9" y="0.5" dy="0.32em">0.5</text></g><g class="tick" opacity="1" transform="translate(0,64.18823529411772)"><line stroke="#444" x2="-6" y1="0.5" y2="0.5"/><text fill="#444" x="-9" y="0.5" dy="0.32em">0.4</text></g><g class="tick" opacity="1" transform="translate(0,92.14117647058829)"><line stroke="#444" x2="-6" y1="0.5" y2="0.5"/><text fill="#444" x="-9" y="0.5" dy="0.32em">0.3</text></g><g class="tick" opacity="1" transform="translate(0,120.09411764705885)"><line stroke="#444" x2="-6" y1="0.5" y2="0.5"/><text fill="#444" x="-9" y="0.5" dy="0.32em">0.2</text></g><g class="tick" opacity="1" transform="translate(0,148.04705882352943)"><line stroke="#444" x2="-6" y1="0.5" y2="0.5"/><text fill="#444" x="-9" y="0.5" dy="0.32em">0.1</text></g><g class="tick" opacity="1" transform="translate(0,176)"><line stroke="#444" x2="-6" y1="0.5" y2="0.5"/><text fill="#444" x="-9" y="0.5" dy="0.32em">0.0</text></g><g class="axis-label" transform="rotate(90) translate(174,5)"><text class="attribute" dy="0.3em" style="text-anchor: end;" fill="#444">Survived</text></g></g></g></svg>